<?xml version="1.0" encoding="UTF-8"?>
<svg id="Layer_2" data-name="Layer 2" xmlns="http://www.w3.org/2000/svg" viewBox="0 0 151.07 160">
  <defs>
    <style>
      .cls-1 {
        fill: #e05d2b;
      }

      .cls-2 {
        fill: #00044a;
      }
    </style>
  </defs>
  <g id="Layer_1-2" data-name="Layer 1">
    <g>
      <path class="cls-2" d="M122.05,59.91c-19.81-22.83-52.4-29.97-79.71-17.57C14.48,54.98-1.62,85.09,3.33,115.51-7.33,83.11,8.43,47.7,39.05,34.1c29.74-13.2,65.46-2.27,82.99,25.81Z"/>
      <path class="cls-1" d="M45.85,46.82c-24.64,14.8-36,44.23-27.86,70.5,7.3,23.57,29.02,40.56,54.51,42.4-28.42,2.74-54.63-14.55-62.75-40.23C.72,90.96,16.09,58.48,45.85,46.82Z"/>
      <path class="cls-1" d="M116.62,33.42v-11.6l3.33-.93L65.49,0,11.02,20.9l17.81,5.18v12.4c4.85-3.28,17.78-11.11,36.06-11.31,19.22-.22,32.83,8.06,37.62,11.31-.02-3.22-.03-6.42-.05-9.63-1.58-.8-3.23-1.6-4.94-2.38-4.64-2.1-9.11-3.73-13.26-5.02,3.86.22,8.48.9,13.5,2.54,1.71.56,3.3,1.17,4.75,1.82l12.3-3.46v11.09c-1.23.38-2.13,1.54-2.13,2.9,0,1.68,1.36,3.04,3.04,3.04s3.04-1.36,3.04-3.04c-.02-1.38-.91-2.53-2.14-2.91Z"/>
      <g>
        <path class="cls-2" d="M46.07,74.84v45.87h-11.17v-45.87h11.17Z"/>
        <path class="cls-2" d="M103.96,74.84v45.87h-11.17v-27.51l-10.26,27.51h-9.02l-10.32-27.57v27.57h-11.17v-45.87h13.19l12.87,31.75,12.75-31.75h13.13Z"/>
        <path class="cls-2" d="M127.02,74.84c4.84,0,9.06.96,12.68,2.88,3.61,1.92,6.41,4.61,8.4,8.07,1.98,3.46,2.97,7.46,2.97,11.99s-.99,8.47-2.97,11.96c-1.98,3.49-4.79,6.19-8.43,8.11-3.64,1.92-7.85,2.87-12.64,2.87h-17.18v-45.87h17.18ZM126.3,111.04c4.22,0,7.51-1.15,9.87-3.46,2.35-2.31,3.53-5.58,3.53-9.8s-1.18-7.51-3.53-9.87c-2.35-2.35-5.64-3.53-9.87-3.53h-5.29v26.66h5.29Z"/>
      </g>
    </g>
  </g>
</svg>